<?xml version="1.0" encoding="UTF-8" standalone="no"?>
<svg
   xmlns:dc="http://purl.org/dc/elements/1.1/"
   xmlns:cc="http://creativecommons.org/ns#"
   xmlns:rdf="http://www.w3.org/1999/02/22-rdf-syntax-ns#"
   xmlns:svg="http://www.w3.org/2000/svg"
   xmlns="http://www.w3.org/2000/svg"
   xmlns:sodipodi="http://sodipodi.sourceforge.net/DTD/sodipodi-0.dtd"
   xmlns:inkscape="http://www.inkscape.org/namespaces/inkscape"
   version="1.1"
   id="svg2"
   xml:space="preserve"
   width="362.07599"
   height="232.71201"
   viewBox="0 0 362.07599 232.71201"
   sodipodi:docname="logo.ai"><metadata
     id="metadata8"><rdf:RDF><cc:Work
         rdf:about=""><dc:format>image/svg+xml</dc:format><dc:type
           rdf:resource="http://purl.org/dc/dcmitype/StillImage" /></cc:Work></rdf:RDF></metadata><defs
     id="defs6"><clipPath
       clipPathUnits="userSpaceOnUse"
       id="clipPath18"><path
         d="M 0,174.534 H 271.557 V 0 H 0 Z"
         id="path16" /></clipPath></defs><sodipodi:namedview
     pagecolor="#ffffff"
     bordercolor="#666666"
     borderopacity="1"
     objecttolerance="10"
     gridtolerance="10"
     guidetolerance="10"
     inkscape:pageopacity="0"
     inkscape:pageshadow="2"
     inkscape:window-width="640"
     inkscape:window-height="480"
     id="namedview4" /><g
     id="g10"
     inkscape:groupmode="layer"
     inkscape:label="logo"
     transform="matrix(1.3333333,0,0,-1.3333333,0,232.712)"><g
       id="g12"><g
         id="g14"
         clip-path="url(#clipPath18)"><g
           id="g20"
           transform="translate(193.3205,129.1603)"><path
             d="m 0,0 c 1.27,-0.176 2.687,-0.31 4.23,-0.354 1.478,-0.044 2.841,0 4.073,0.093 C 6.62,1.634 3.379,4.76 -1.646,6.803 -9.192,9.87 -15.963,8.542 -18.444,7.924 c -0.179,1.5 -0.358,3.002 -0.537,4.502 2.493,-0.444 4.986,-0.888 7.478,-1.333 1.019,1.201 2.037,2.403 3.055,3.603 -2.051,2.528 -4.469,5.239 -7.298,8.001 -2.505,2.445 -4.956,4.565 -7.262,6.391 0,0 -11.02,-11.98 -17.579,-23.205 1.897,0.324 3.739,-0.317 4.905,-1.592 l 1.052,-4.578 c -0.522,-1.75 -2.025,-3.208 -4.034,-3.669 -0.893,-0.205 -1.78,-0.189 -2.602,0.013 l 3.4,-14.807 c 0.105,-0.46 -0.182,-0.918 -0.642,-1.024 l -2.059,-0.473 c -0.459,-0.106 -0.917,0.182 -1.024,0.642 l -3.644,15.873 c -0.054,0.235 -0.101,0.479 -0.142,0.726 -6.041,-11.713 -10.481,-22.319 -12.348,-30.89 6.144,1.759 15.854,3.745 27.768,2.892 12.518,-0.895 22.235,-4.551 28.148,-7.308 -0.439,6.562 -0.879,13.127 -1.318,19.69 -1.075,0.171 -2.436,0.271 -3.99,0.106 -3.338,-0.352 -5.796,-1.737 -7.122,-2.635 -0.546,0.599 -0.882,1.394 -0.882,2.269 0,1.216 0.549,2.326 1.509,2.924 0.761,0.473 1.565,0.461 1.87,0.455 2.091,-0.052 6.989,-0.059 13.585,-0.104 0.871,1.353 1.795,2.987 2.642,4.897 0.758,1.704 1.31,3.301 1.716,4.719 C 5.819,-5.622 5.437,-5.253 5.055,-4.884 3.369,-3.255 1.685,-1.628 0,0"
             style="fill:#c89632;fill-opacity:1;fill-rule:nonzero;stroke:none"
             id="path22" /></g><g
           id="g24"
           transform="translate(129.6721,84.6012)"><path
             d="m 0,0 c 1.703,11.926 5.743,29.921 16.253,49.408 8.77,16.26 19.037,27.986 26.929,35.685 -28.185,9.839 -65.075,3.718 -88.057,-9.737 5.648,0.708 11.69,1.274 18.091,1.617 7.432,0.398 14.426,0.447 20.915,0.262 -7.226,-1.071 -17.205,-3.337 -28.202,-8.441 C -44.649,63.886 -52.587,58.015 -57.999,53.342 -33.021,38.525 -13.547,20.32 0,0"
             style="fill:#c89632;fill-opacity:1;fill-rule:nonzero;stroke:none"
             id="path26" /></g><g
           id="g28"
           transform="translate(100.5456,14.299)"><path
             d="M 0,0 H -1.588 V -2.818 H 0 c 1.074,0 1.979,0.268 1.979,1.409 C 1.979,-0.269 1.085,0 0,0 m -0.067,1.163 c 1.857,0 3.344,-0.582 3.344,-2.572 0,-1.99 -1.487,-2.572 -3.344,-2.572 h -1.521 v -2.685 h -1.275 v 7.829 z"
             style="fill:#000000;fill-opacity:1;fill-rule:nonzero;stroke:none"
             id="path30" /></g><g
           id="g32"
           transform="translate(106.9284,11.6925)"><path
             d="m 0,0 h 1.913 c 0.838,0 1.655,0.303 1.655,1.298 0,1.007 -0.817,1.308 -1.655,1.308 H 0 Z m -1.275,-4.06 v 7.83 h 3.132 c 1.465,0 3.009,-0.582 3.009,-2.45 0,-1.398 -0.873,-2.069 -1.902,-2.315 L 5.469,-4.06 H 3.937 L 1.588,-1.129 H 0 V -4.06 Z"
             style="fill:#000000;fill-opacity:1;fill-rule:nonzero;stroke:none"
             id="path34" /></g><g
           id="g36"
           transform="translate(117.5622,14.4113)"><path
             d="m 0,0 c -1.89,0 -2.819,-1.365 -2.819,-2.863 0,-1.499 0.929,-2.864 2.819,-2.864 1.901,0 2.818,1.365 2.818,2.864 C 2.818,-1.365 1.901,0 0,0 m 0,1.196 c 2.751,0 4.116,-1.991 4.116,-4.059 0,-2.07 -1.365,-4.061 -4.116,-4.061 -2.763,0 -4.116,1.991 -4.116,4.061 0,2.068 1.353,4.059 4.116,4.059"
             style="fill:#000000;fill-opacity:1;fill-rule:nonzero;stroke:none"
             id="path38" /></g><g
           id="g40"
           transform="translate(128.9777,15.4621)"><path
             d="m 0,0 v -1.174 h -2.584 v -6.655 h -1.275 v 6.655 H -6.454 V 0 Z"
             style="fill:#000000;fill-opacity:1;fill-rule:nonzero;stroke:none"
             id="path42" /></g><g
           id="g44"
           transform="translate(136.0324,15.4621)"><path
             d="m 0,0 v -1.163 h -4.116 v -2.136 h 3.781 V -4.463 H -4.116 V -6.666 H 0.067 V -7.829 H -5.391 V 0 Z"
             style="fill:#000000;fill-opacity:1;fill-rule:nonzero;stroke:none"
             id="path46" /></g><g
           id="g48"
           transform="translate(141.6887,15.6076)"><path
             d="m 0,0 c 0.783,0 1.555,-0.179 2.226,-0.515 v -1.241 c -0.548,0.38 -1.275,0.581 -2.013,0.581 -1.499,0 -3.054,-0.883 -3.065,-2.952 0,-1.924 1.588,-2.819 3.087,-2.819 0.805,0 1.533,0.213 2.047,0.604 V -7.605 C 1.622,-7.93 0.839,-8.12 0.012,-8.12 -2.013,-8.12 -4.16,-6.8 -4.149,-4.127 -4.149,-1.343 -2.058,0 0,0"
             style="fill:#000000;fill-opacity:1;fill-rule:nonzero;stroke:none"
             id="path50" /></g><g
           id="g52"
           transform="translate(151.5617,15.4621)"><path
             d="m 0,0 v -1.174 h -2.584 v -6.655 h -1.275 v 6.655 H -6.454 V 0 Z"
             style="fill:#000000;fill-opacity:1;fill-rule:nonzero;stroke:none"
             id="path54" /></g><path
           d="m 154.5,7.633 h -1.274 v 7.829 h 1.274 z"
           style="fill:#000000;fill-opacity:1;fill-rule:nonzero;stroke:none"
           id="path56" /><g
           id="g58"
           transform="translate(160.5724,14.4113)"><path
             d="m 0,0 c -1.891,0 -2.818,-1.365 -2.818,-2.863 0,-1.499 0.927,-2.864 2.818,-2.864 1.901,0 2.818,1.365 2.818,2.864 C 2.818,-1.365 1.901,0 0,0 m 0,1.196 c 2.751,0 4.116,-1.991 4.116,-4.059 0,-2.07 -1.365,-4.061 -4.116,-4.061 -2.763,0 -4.116,1.991 -4.116,4.061 0,2.068 1.353,4.059 4.116,4.059"
             style="fill:#000000;fill-opacity:1;fill-rule:nonzero;stroke:none"
             id="path60" /></g><g
           id="g62"
           transform="translate(166.6418,7.6329)"><path
             d="M 0,0 V 7.829 H 1.196 L 5.413,2.103 C 5.401,2.371 5.401,2.673 5.401,2.964 V 7.829 H 6.677 V 0 H 5.48 L 1.264,5.727 C 1.274,5.458 1.274,5.156 1.274,4.876 V 0 Z"
             style="fill:#000000;fill-opacity:1;fill-rule:nonzero;stroke:none"
             id="path64" /></g><g
           id="g66"
           transform="translate(10.3498,51.984)"><path
             d="M 0,0 H -2.485 V -4.665 H 0 c 1.804,0 2.962,0.682 2.962,2.315 C 2.962,-0.681 1.804,0 0,0 m 0.068,6.468 c 6.06,0 10.69,-2.111 10.69,-8.818 0,-6.672 -4.63,-8.782 -10.69,-8.782 h -2.553 v -6.231 H -10.35 V 6.468 Z"
             style="fill:#000000;fill-opacity:1;fill-rule:nonzero;stroke:none"
             id="path68" /></g><g
           id="g70"
           transform="translate(47.3205,58.4523)"><path
             d="m 0,0 v -23.831 h -7.83 v 8.477 h -6.469 v -8.477 h -7.864 V 0 h 7.864 v -8.477 h 6.469 l 0,8.477 z"
             style="fill:#000000;fill-opacity:1;fill-rule:nonzero;stroke:none"
             id="path72" /></g><g
           id="g74"
           transform="translate(64.5446,51.882)"><path
             d="m 0,0 c -3.063,0 -4.834,-2.077 -4.834,-5.345 0,-3.268 1.771,-5.345 4.834,-5.345 3.064,0 4.835,2.077 4.835,5.345 C 4.835,-2.077 3.064,0 0,0 m 0,7.115 c 8.579,0 12.903,-5.617 12.903,-12.46 0,-6.843 -4.324,-12.461 -12.903,-12.461 -8.579,0 -12.903,5.618 -12.903,12.461 0,6.843 4.324,12.46 12.903,12.46"
             style="fill:#000000;fill-opacity:1;fill-rule:nonzero;stroke:none"
             id="path76" /></g><g
           id="g78"
           transform="translate(81.7697,34.6212)"><path
             d="m 0,0 v 23.831 h 6.639 l 8.069,-11.2 c -0.17,1.429 -0.205,2.791 -0.205,4.085 v 7.115 h 7.865 L 22.368,0 H 15.729 L 7.661,11.167 C 7.831,9.737 7.865,8.409 7.865,7.149 V 0 Z"
             style="fill:#000000;fill-opacity:1;fill-rule:nonzero;stroke:none"
             id="path80" /></g><g
           id="g82"
           transform="translate(127.4899,58.4523)"><path
             d="m 0,0 v -6.196 h -10.18 v -2.758 h 8.954 v -5.787 h -8.954 v -2.826 H 0.204 v -6.264 H -18.044 V 0 Z"
             style="fill:#000000;fill-opacity:1;fill-rule:nonzero;stroke:none"
             id="path84" /></g><g
           id="g86"
           transform="translate(141.2424,43.4728)"><path
             d="M 0,0 H 4.664 L 2.996,5.072 C 2.724,5.958 2.484,6.911 2.314,8.137 2.144,6.911 1.906,5.958 1.668,5.072 Z m -10.827,-8.852 8.92,23.831 H 6.536 L 15.422,-8.852 H 7.456 L 6.434,-5.686 H -1.805 L -2.86,-8.852 Z"
             style="fill:#c89632;fill-opacity:1;fill-rule:nonzero;stroke:none"
             id="path88" /></g><g
           id="g90"
           transform="translate(167.9308,47.5582)"><path
             d="m 0,0 h 3.03 c 1.532,0 2.417,0.919 2.417,2.247 0,1.327 -0.885,2.247 -2.417,2.247 H 0 Z M -7.864,-12.937 V 10.894 H 3.2 c 5.073,0 10.146,-1.906 10.146,-8.409 0,-3.711 -1.702,-5.923 -4.085,-7.115 l 6.128,-8.307 H 6.74 L 1.838,-5.89 H 0 v -7.047 z"
             style="fill:#c89632;fill-opacity:1;fill-rule:nonzero;stroke:none"
             id="path92" /></g><g
           id="g94"
           transform="translate(213.8557,58.4523)"><path
             d="m 0,0 v -23.831 h -7.66 v 10.894 l -3.914,-6.06 h -4.12 l -3.916,6.094 v -10.928 h -7.66 V 0 h 6.98 L -13.652,-10.417 -6.979,0 Z"
             style="fill:#c89632;fill-opacity:1;fill-rule:nonzero;stroke:none"
             id="path96" /></g><g
           id="g98"
           transform="translate(231.0803,51.882)"><path
             d="m 0,0 c -3.064,0 -4.835,-2.077 -4.835,-5.345 0,-3.268 1.771,-5.345 4.835,-5.345 3.063,0 4.834,2.077 4.834,5.345 C 4.834,-2.077 3.063,0 0,0 m 0,7.115 c 8.579,0 12.903,-5.617 12.903,-12.46 0,-6.843 -4.324,-12.461 -12.903,-12.461 -8.579,0 -12.903,5.618 -12.903,12.461 0,6.843 4.324,12.46 12.903,12.46"
             style="fill:#c89632;fill-opacity:1;fill-rule:nonzero;stroke:none"
             id="path100" /></g><g
           id="g102"
           transform="translate(256.1691,47.5582)"><path
             d="m 0,0 h 3.029 c 1.533,0 2.418,0.919 2.418,2.247 0,1.327 -0.885,2.247 -2.418,2.247 H 0 Z M -7.864,-12.937 V 10.894 H 3.199 c 5.073,0 10.147,-1.906 10.147,-8.409 0,-3.711 -1.703,-5.923 -4.086,-7.115 l 6.128,-8.307 H 6.74 L 1.838,-5.89 H 0 v -7.047 z"
             style="fill:#c89632;fill-opacity:1;fill-rule:nonzero;stroke:none"
             id="path104" /></g></g></g></g></svg>
